<mxfile host="app.diagrams.net" modified="2023-08-23T14:09:08.609Z" agent="Mozilla/5.0 (Macintosh; Intel Mac OS X 10_15_7) AppleWebKit/537.36 (KHTML, like Gecko) Chrome/116.0.0.0 Safari/537.36" etag="gAyC0jCv5L1Fl0I_H5El" version="21.6.8" type="github">
  <diagram name="PÃ¡gina-1" id="oJ_uSgrKRGmOO-BIVQJW">
    <mxGraphModel dx="1781" dy="-560" grid="1" gridSize="10" guides="1" tooltips="1" connect="1" arrows="1" fold="1" page="1" pageScale="1" pageWidth="827" pageHeight="1169" math="0" shadow="0">
      <root>
        <mxCell id="0" />
        <mxCell id="1" parent="0" />
        <mxCell id="tQj2e6aS2rfp-uju7tFE-2" style="edgeStyle=orthogonalEdgeStyle;rounded=0;orthogonalLoop=1;jettySize=auto;html=1;entryX=0.5;entryY=1;entryDx=0;entryDy=0;" edge="1" parent="1" source="tQj2e6aS2rfp-uju7tFE-7" target="tQj2e6aS2rfp-uju7tFE-8">
          <mxGeometry relative="1" as="geometry">
            <Array as="points">
              <mxPoint x="55" y="2208" />
              <mxPoint x="-270" y="2208" />
            </Array>
          </mxGeometry>
        </mxCell>
        <mxCell id="tQj2e6aS2rfp-uju7tFE-3" style="edgeStyle=orthogonalEdgeStyle;rounded=0;orthogonalLoop=1;jettySize=auto;html=1;entryX=0.5;entryY=1;entryDx=0;entryDy=0;" edge="1" parent="1" source="tQj2e6aS2rfp-uju7tFE-7" target="tQj2e6aS2rfp-uju7tFE-11">
          <mxGeometry relative="1" as="geometry">
            <Array as="points">
              <mxPoint x="75" y="2208" />
              <mxPoint x="470" y="2208" />
            </Array>
          </mxGeometry>
        </mxCell>
        <mxCell id="tQj2e6aS2rfp-uju7tFE-4" style="edgeStyle=orthogonalEdgeStyle;rounded=0;orthogonalLoop=1;jettySize=auto;html=1;" edge="1" parent="1" source="tQj2e6aS2rfp-uju7tFE-7" target="tQj2e6aS2rfp-uju7tFE-13">
          <mxGeometry relative="1" as="geometry">
            <Array as="points">
              <mxPoint x="-5" y="2288" />
              <mxPoint x="-5" y="2288" />
            </Array>
          </mxGeometry>
        </mxCell>
        <mxCell id="tQj2e6aS2rfp-uju7tFE-5" style="edgeStyle=orthogonalEdgeStyle;rounded=0;orthogonalLoop=1;jettySize=auto;html=1;flowAnimation=1;orthogonal=0;enumerate=0;dashed=1;" edge="1" parent="1" source="tQj2e6aS2rfp-uju7tFE-7" target="tQj2e6aS2rfp-uju7tFE-16">
          <mxGeometry relative="1" as="geometry" />
        </mxCell>
        <mxCell id="tQj2e6aS2rfp-uju7tFE-6" value="HTTP" style="edgeLabel;html=1;align=center;verticalAlign=middle;resizable=0;points=[];" vertex="1" connectable="0" parent="tQj2e6aS2rfp-uju7tFE-5">
          <mxGeometry x="0.1091" y="1" relative="1" as="geometry">
            <mxPoint as="offset" />
          </mxGeometry>
        </mxCell>
        <mxCell id="tQj2e6aS2rfp-uju7tFE-7" value="Customer Service" style="image;aspect=fixed;perimeter=ellipsePerimeter;html=1;align=center;shadow=0;dashed=0;fontColor=#4277BB;labelBackgroundColor=default;fontSize=12;spacingTop=3;image=img/lib/ibm/miscellaneous/microservices_application.svg;" vertex="1" parent="1">
          <mxGeometry x="35" y="2258" width="60" height="60" as="geometry" />
        </mxCell>
        <mxCell id="tQj2e6aS2rfp-uju7tFE-8" value="" style="shape=actor;whiteSpace=wrap;html=1;fillColor=#dae8fc;strokeColor=#6c8ebf;" vertex="1" parent="1">
          <mxGeometry x="-285" y="2138" width="30" height="40" as="geometry" />
        </mxCell>
        <mxCell id="tQj2e6aS2rfp-uju7tFE-9" value="PICPAY SIMPLIFIED - ARCHITECTURE" style="text;html=1;strokeColor=#666666;fillColor=#f5f5f5;align=center;verticalAlign=middle;whiteSpace=wrap;rounded=0;fontColor=#333333;" vertex="1" parent="1">
          <mxGeometry x="-75" y="1950" width="295" height="30" as="geometry" />
        </mxCell>
        <mxCell id="tQj2e6aS2rfp-uju7tFE-10" value="payer" style="text;html=1;strokeColor=none;fillColor=none;align=center;verticalAlign=middle;whiteSpace=wrap;rounded=0;" vertex="1" parent="1">
          <mxGeometry x="-300" y="2108" width="60" height="30" as="geometry" />
        </mxCell>
        <mxCell id="tQj2e6aS2rfp-uju7tFE-11" value="" style="shape=actor;whiteSpace=wrap;html=1;fillColor=#d5e8d4;strokeColor=#82b366;" vertex="1" parent="1">
          <mxGeometry x="455" y="2138" width="30" height="40" as="geometry" />
        </mxCell>
        <mxCell id="tQj2e6aS2rfp-uju7tFE-12" value="payee" style="text;html=1;strokeColor=none;fillColor=none;align=center;verticalAlign=middle;whiteSpace=wrap;rounded=0;" vertex="1" parent="1">
          <mxGeometry x="440" y="2108" width="60" height="30" as="geometry" />
        </mxCell>
        <mxCell id="tQj2e6aS2rfp-uju7tFE-13" value="db" style="shape=cylinder3;whiteSpace=wrap;html=1;boundedLbl=1;backgroundOutline=1;size=15;fillColor=#f5f5f5;fontColor=#333333;strokeColor=#666666;" vertex="1" parent="1">
          <mxGeometry x="-200" y="2258" width="60" height="80" as="geometry" />
        </mxCell>
        <mxCell id="tQj2e6aS2rfp-uju7tFE-14" style="edgeStyle=orthogonalEdgeStyle;rounded=0;orthogonalLoop=1;jettySize=auto;html=1;exitX=0.5;exitY=1;exitDx=0;exitDy=0;" edge="1" parent="1" source="tQj2e6aS2rfp-uju7tFE-9" target="tQj2e6aS2rfp-uju7tFE-9">
          <mxGeometry relative="1" as="geometry" />
        </mxCell>
        <mxCell id="tQj2e6aS2rfp-uju7tFE-15" style="edgeStyle=orthogonalEdgeStyle;rounded=0;orthogonalLoop=1;jettySize=auto;html=1;entryX=0;entryY=0.5;entryDx=0;entryDy=0;entryPerimeter=0;" edge="1" parent="1" source="tQj2e6aS2rfp-uju7tFE-16" target="tQj2e6aS2rfp-uju7tFE-17">
          <mxGeometry relative="1" as="geometry" />
        </mxCell>
        <mxCell id="tQj2e6aS2rfp-uju7tFE-16" value="Account Service" style="image;aspect=fixed;perimeter=ellipsePerimeter;html=1;align=center;shadow=0;dashed=0;fontColor=#4277BB;labelBackgroundColor=default;fontSize=12;spacingTop=3;image=img/lib/ibm/miscellaneous/microservices_application.svg;" vertex="1" parent="1">
          <mxGeometry x="260" y="2258" width="60" height="60" as="geometry" />
        </mxCell>
        <mxCell id="tQj2e6aS2rfp-uju7tFE-17" value="db" style="shape=cylinder3;whiteSpace=wrap;html=1;boundedLbl=1;backgroundOutline=1;size=15;fillColor=#f5f5f5;fontColor=#333333;strokeColor=#666666;" vertex="1" parent="1">
          <mxGeometry x="425" y="2248" width="60" height="80" as="geometry" />
        </mxCell>
        <mxCell id="tQj2e6aS2rfp-uju7tFE-18" value="Transactions Service" style="image;aspect=fixed;perimeter=ellipsePerimeter;html=1;align=center;shadow=0;dashed=0;fontColor=#4277BB;labelBackgroundColor=default;fontSize=12;spacingTop=3;image=img/lib/ibm/miscellaneous/microservices_application.svg;" vertex="1" parent="1">
          <mxGeometry x="42.5" y="2070" width="60" height="60" as="geometry" />
        </mxCell>
      </root>
    </mxGraphModel>
  </diagram>
</mxfile>
